<?xml version="1.0" encoding="utf-8"?>
<!-- Generator: Adobe Illustrator 22.0.1, SVG Export Plug-In . SVG Version: 6.00 Build 0)  -->
<svg version="1.1" id="Layer_1" xmlns="http://www.w3.org/2000/svg" xmlns:xlink="http://www.w3.org/1999/xlink" x="0px" y="0px"
	 viewBox="0 0 216 216" style="enable-background:new 0 0 216 216;" xml:space="preserve">
<style type="text/css">
	.st0{fill:#FFFFFF;stroke:#000000;stroke-width:2;stroke-miterlimit:10;}
	.st1{fill:#FFFFFF;stroke:#000000;stroke-width:4;stroke-miterlimit:10;}
	.st2{fill:none;stroke:#000000;stroke-width:4;stroke-miterlimit:10;}
	.st3{fill:#FFFFFF;}
	.st4{fill:none;stroke:#000000;stroke-width:2;stroke-miterlimit:10;}
	.st5{fill:none;stroke:#FFFFFF;stroke-width:8;stroke-miterlimit:10;}
	.st6{fill:none;stroke:#000000;stroke-miterlimit:10;}
</style>
<g>
	<path d="M167,52H49c-3.3,0-6,3.2-6,7.1v70.7c0,2.7,1.3,7.1,10,7.1h4v-4h-4c-6,0-6-2.2-6-3.1V59.1c0-1.9,1.1-3.1,2-3.1h118
		c0.9,0,2,1.3,2,3.1v70.7c0,0.9-0.2,1.7-0.4,2.5c-0.1,0.2-0.1,0.4-0.2,0.7H141v4h30v-4c0.1,0,0.5,0.1,0.8,0.4
		c0.3,0.4,0.4,0.8,0.4,0.9c0-0.2,0.1-0.6,0.2-0.9c0.2-0.9,0.6-2.1,0.6-3.5V59.1C173,55.2,170.3,52,167,52z"/>
	<path d="M131,88H67c-3.3,0-6,2.7-6,6v46c0,3.3,2.7,6,6,6h8v-4h-8c-1.1,0-2-0.9-2-2V94c0-1.1,0.9-2,2-2h64c1.1,0,2,0.9,2,2v46
		c0,1.1-0.9,2-2,2h-8v4h8c3.3,0,6-2.7,6-6V94C137,90.7,134.3,88,131,88z"/>
	<path d="M113,115H85c-3.3,0-6,2.7-6,6v46c0,3.3,2.7,6,6,6h28c3.3,0,6-2.7,6-6v-46C119,117.7,116.3,115,113,115z M115,167
		c0,1.1-0.9,2-2,2H85c-1.1,0-2-0.9-2-2v-46c0-1.1,0.9-2,2-2h28c1.1,0,2,0.9,2,2V167z"/>
</g>
<g>
	<path d="M57.3,70.7c0-0.2,0-0.4,0.1-0.6c0.1-0.2,0.2-0.3,0.3-0.5c0.1-0.1,0.3-0.2,0.5-0.3c0.2-0.1,0.4-0.1,0.6-0.1s0.4,0,0.6,0.1
		c0.2,0.1,0.3,0.2,0.5,0.3c0.1,0.1,0.2,0.3,0.3,0.5c0.1,0.2,0.1,0.4,0.1,0.6c0,0.2,0,0.4-0.1,0.6s-0.2,0.3-0.3,0.4
		c-0.1,0.1-0.3,0.2-0.5,0.3s-0.4,0.1-0.6,0.1s-0.4,0-0.6-0.1s-0.3-0.2-0.5-0.3c-0.1-0.1-0.2-0.3-0.3-0.4
		C57.3,71.1,57.3,70.9,57.3,70.7z"/>
	<path d="M65.2,60h4.7v10.2h2.4V72h-7.1v-1.8h2.5v-8.5h-2.5V60z"/>
</g>
<g>
	<path d="M75.3,106.7c0-0.2,0-0.4,0.1-0.6c0.1-0.2,0.2-0.3,0.3-0.5c0.1-0.1,0.3-0.2,0.5-0.3c0.2-0.1,0.4-0.1,0.6-0.1s0.4,0,0.6,0.1
		c0.2,0.1,0.3,0.2,0.5,0.3c0.1,0.1,0.2,0.3,0.3,0.5c0.1,0.2,0.1,0.4,0.1,0.6c0,0.2,0,0.4-0.1,0.6s-0.2,0.3-0.3,0.4
		c-0.1,0.1-0.3,0.2-0.5,0.3s-0.4,0.1-0.6,0.1s-0.4,0-0.6-0.1s-0.3-0.2-0.5-0.3c-0.1-0.1-0.2-0.3-0.3-0.4
		C75.3,107.1,75.3,106.9,75.3,106.7z"/>
	<path d="M84.1,99.5l0.1,1c0.2-0.4,0.4-0.7,0.7-0.9c0.3-0.2,0.6-0.3,1-0.3c0.7,0,1.1,0.3,1.3,0.9c0.2-0.3,0.4-0.5,0.6-0.7
		c0.3-0.2,0.6-0.2,0.9-0.2c0.3,0,0.5,0,0.7,0.1c0.2,0.1,0.4,0.2,0.6,0.4c0.2,0.2,0.3,0.5,0.4,0.8c0.1,0.3,0.1,0.7,0.1,1.2v6h-2v-6
		c0-0.2,0-0.3-0.1-0.4c0-0.1-0.1-0.2-0.1-0.2c-0.1-0.1-0.1-0.1-0.2-0.1c-0.1,0-0.2,0-0.2,0c-0.2,0-0.3,0-0.4,0.1
		c-0.1,0.1-0.2,0.2-0.2,0.3v6.5h-1.9v-6c0-0.2,0-0.3,0-0.4c0-0.1-0.1-0.2-0.1-0.2c-0.1-0.1-0.1-0.1-0.2-0.1c-0.1,0-0.2,0-0.2,0
		c-0.2,0-0.3,0-0.4,0.1s-0.2,0.2-0.2,0.4v6.3h-2v-8.5H84.1z"/>
</g>
<g>
	<path d="M93.3,133.7c0-0.2,0-0.4,0.1-0.6c0.1-0.2,0.2-0.3,0.3-0.5c0.1-0.1,0.3-0.2,0.5-0.3c0.2-0.1,0.4-0.1,0.6-0.1s0.4,0,0.6,0.1
		c0.2,0.1,0.3,0.2,0.5,0.3c0.1,0.1,0.2,0.3,0.3,0.5c0.1,0.2,0.1,0.4,0.1,0.6c0,0.2,0,0.4-0.1,0.6s-0.2,0.3-0.3,0.4
		c-0.1,0.1-0.3,0.2-0.5,0.3s-0.4,0.1-0.6,0.1s-0.4,0-0.6-0.1s-0.3-0.2-0.5-0.3c-0.1-0.1-0.2-0.3-0.3-0.4
		C93.3,134.1,93.3,133.9,93.3,133.7z"/>
	<path d="M106.2,132.7c0-0.1,0-0.2-0.1-0.3c-0.1-0.1-0.2-0.2-0.3-0.3c-0.2-0.1-0.4-0.2-0.6-0.2c-0.3-0.1-0.6-0.1-1-0.2
		c-0.5-0.1-0.9-0.2-1.4-0.4c-0.4-0.1-0.8-0.3-1.1-0.5c-0.3-0.2-0.5-0.5-0.7-0.7c-0.2-0.3-0.2-0.6-0.2-1c0-0.3,0.1-0.7,0.2-1
		c0.2-0.3,0.4-0.6,0.7-0.8c0.3-0.2,0.7-0.4,1.1-0.6c0.4-0.1,1-0.2,1.5-0.2c0.6,0,1.1,0.1,1.6,0.2c0.5,0.1,0.9,0.3,1.2,0.6
		c0.3,0.2,0.6,0.5,0.7,0.9c0.2,0.3,0.3,0.7,0.3,1.1h-2.2c0-0.3-0.1-0.6-0.4-0.8c-0.3-0.2-0.7-0.3-1.2-0.3c-0.5,0-0.9,0.1-1.1,0.3
		c-0.3,0.2-0.4,0.4-0.4,0.7c0,0.1,0,0.2,0.1,0.3c0.1,0.1,0.1,0.2,0.3,0.3s0.3,0.2,0.5,0.2c0.2,0.1,0.5,0.1,0.9,0.2
		c0.5,0.1,1,0.2,1.4,0.3c0.4,0.1,0.8,0.3,1.1,0.5c0.3,0.2,0.6,0.5,0.7,0.8c0.2,0.3,0.3,0.6,0.3,1.1c0,0.4-0.1,0.7-0.3,1
		c-0.2,0.3-0.4,0.6-0.8,0.8c-0.3,0.2-0.7,0.4-1.2,0.5s-1,0.2-1.6,0.2c-0.6,0-1.2-0.1-1.7-0.2c-0.5-0.2-0.9-0.4-1.2-0.7
		c-0.3-0.3-0.6-0.6-0.7-0.9c-0.2-0.3-0.3-0.7-0.3-1h2.1c0,0.2,0.1,0.4,0.2,0.6s0.2,0.3,0.4,0.4s0.4,0.2,0.6,0.2
		c0.2,0,0.4,0.1,0.7,0.1c0.5,0,0.9-0.1,1.2-0.3S106.2,133,106.2,132.7z"/>
</g>
</svg>
