<?xml version="1.0" encoding="utf-8"?>
<!-- Generator: Adobe Illustrator 22.0.1, SVG Export Plug-In . SVG Version: 6.00 Build 0)  -->
<svg version="1.1" id="Layer_1" xmlns="http://www.w3.org/2000/svg" xmlns:xlink="http://www.w3.org/1999/xlink" x="0px" y="0px"
	 viewBox="0 0 216 216" style="enable-background:new 0 0 216 216;" xml:space="preserve">
<style type="text/css">
	.st0{fill:#FFFFFF;stroke:#000000;stroke-width:2;stroke-miterlimit:10;}
	.st1{fill:#FFFFFF;stroke:#000000;stroke-width:4;stroke-miterlimit:10;}
	.st2{fill:none;stroke:#000000;stroke-width:4;stroke-miterlimit:10;}
	.st3{fill:#FFFFFF;}
	.st4{fill:none;stroke:#000000;stroke-width:2;stroke-miterlimit:10;}
	.st5{fill:none;stroke:#FFFFFF;stroke-width:8;stroke-miterlimit:10;}
	.st6{fill:none;stroke:#000000;stroke-miterlimit:10;}
</style>
<g>
	<path d="M185,71h-59v2h59c1.7,0,3,1.3,3,3v64c0,1.7-1.3,3-3,3H31c-1.7,0-3-1.3-3-3V76c0-1.7,1.3-3,3-3h59v-2H31c-2.8,0-5,2.2-5,5
		v64c0,2.8,2.2,5,5,5h154c2.8,0,5-2.2,5-5V76C190,73.2,187.8,71,185,71z"/>
	<path d="M49,88c-3.3,0-6,2.7-6,6v28c0,3.3,2.7,6,6,6h28c3.3,0,6-2.7,6-6V94c0-3.3-2.7-6-6-6H49z M79,94v28c0,1.1-0.9,2-2,2H49
		c-1.1,0-2-0.9-2-2V94c0-1.1,0.9-2,2-2h28C78.1,92,79,92.9,79,94z"/>
	<path d="M88,94v28c0,3.3,2.7,6,6,6h28c3.3,0,6-2.7,6-6V94c0-3.3-2.7-6-6-6H94C90.7,88,88,90.7,88,94z M92,94c0-1.1,0.9-2,2-2h28
		c1.1,0,2,0.9,2,2v28c0,1.1-0.9,2-2,2H94c-1.1,0-2-0.9-2-2V94z"/>
	<path d="M167,128c3.3,0,6-2.7,6-6V94c0-3.3-2.7-6-6-6h-28c-3.3,0-6,2.7-6,6v28c0,3.3,2.7,6,6,6H167z M137,122V94c0-1.1,0.9-2,2-2
		h28c1.1,0,2,0.9,2,2v28c0,1.1-0.9,2-2,2h-28C137.9,124,137,123.1,137,122z"/>
	<polygon points="118.4,73.4 115.6,70.6 110,76.2 110,54 106,54 106,76.2 100.4,70.6 97.6,73.4 108,83.8 	"/>
</g>
</svg>
