<?xml version="1.0" encoding="utf-8"?>
<!-- Generator: Adobe Illustrator 22.0.1, SVG Export Plug-In . SVG Version: 6.00 Build 0)  -->
<svg version="1.1" id="Layer_1" xmlns="http://www.w3.org/2000/svg" xmlns:xlink="http://www.w3.org/1999/xlink" x="0px" y="0px"
	 viewBox="0 0 216 216" style="enable-background:new 0 0 216 216;" xml:space="preserve">
<style type="text/css">
	.st0{fill:#FFFFFF;stroke:#000000;stroke-width:2;stroke-miterlimit:10;}
	.st1{fill:#FFFFFF;stroke:#000000;stroke-width:4;stroke-miterlimit:10;}
	.st2{fill:none;stroke:#000000;stroke-width:4;stroke-miterlimit:10;}
	.st3{fill:#FFFFFF;}
	.st4{fill:none;stroke:#000000;stroke-width:2;stroke-miterlimit:10;}
	.st5{fill:none;stroke:#FFFFFF;stroke-width:8;stroke-miterlimit:10;}
	.st6{fill:none;stroke:#000000;stroke-miterlimit:10;}
</style>
<g>
	<path d="M185,70h-32v4h32c1.1,0,2,0.9,2,2v64c0,1.1-0.9,2-2,2H31c-1.1,0-2-0.9-2-2V76c0-1.1,0.9-2,2-2h86v-4H31c-3.3,0-6,2.7-6,6
		v64c0,3.3,2.7,6,6,6h154c3.3,0,6-2.7,6-6V76C191,72.7,188.3,70,185,70z"/>
	<path d="M49,88c-3.3,0-6,2.7-6,6v28c0,3.3,2.7,6,6,6h28c3.3,0,6-2.7,6-6V94c0-3.3-2.7-6-6-6H49z M79,94v28c0,1.1-0.9,2-2,2H49
		c-1.1,0-2-0.9-2-2V94c0-1.1,0.9-2,2-2h28C78.1,92,79,92.9,79,94z"/>
	<path d="M88,94v28c0,3.3,2.7,6,6,6h28c3.3,0,6-2.7,6-6V94c0-3.3-2.7-6-6-6H94C90.7,88,88,90.7,88,94z M124,94v28c0,1.1-0.9,2-2,2
		H94c-1.1,0-2-0.9-2-2V94c0-1.1,0.9-2,2-2h28C123.1,92,124,92.9,124,94z"/>
	<path d="M133,94v28c0,3.3,2.7,6,6,6h28c3.3,0,6-2.7,6-6V94c0-3.3-2.7-6-6-6h-28C135.7,88,133,90.7,133,94z M137,94c0-1.1,0.9-2,2-2
		h28c1.1,0,2,0.9,2,2v28c0,1.1-0.9,2-2,2h-28c-1.1,0-2-0.9-2-2V94z"/>
	<polygon points="145.4,73.4 142.6,70.6 137,76.2 137,54 133,54 133,76.2 127.4,70.6 124.6,73.4 135,83.8 	"/>
	<polygon points="73.4,55.4 70.6,52.6 65,58.2 65,36 61,36 61,58.2 55.4,52.6 52.6,55.4 63,65.8 	"/>
</g>
</svg>
