<?xml version="1.0" encoding="utf-8"?>
<!-- Generator: Adobe Illustrator 22.0.1, SVG Export Plug-In . SVG Version: 6.00 Build 0)  -->
<svg version="1.1" id="Layer_1" xmlns="http://www.w3.org/2000/svg" xmlns:xlink="http://www.w3.org/1999/xlink" x="0px" y="0px"
	 viewBox="0 0 216 216" style="enable-background:new 0 0 216 216;" xml:space="preserve">
<style type="text/css">
	.st0{fill:#FFFFFF;stroke:#000000;stroke-width:2;stroke-miterlimit:10;}
	.st1{fill:#FFFFFF;stroke:#000000;stroke-width:4;stroke-miterlimit:10;}
	.st2{fill:none;stroke:#000000;stroke-width:4;stroke-miterlimit:10;}
	.st3{fill:#FFFFFF;}
	.st4{fill:none;stroke:#000000;stroke-width:2;stroke-miterlimit:10;}
	.st5{fill:none;stroke:#FFFFFF;stroke-width:8;stroke-miterlimit:10;}
	.st6{fill:none;stroke:#000000;stroke-miterlimit:10;}
</style>
<path d="M176,61H40c-3.3,0-6,2.7-6,6v82c0,3.3,2.7,6,6,6h136c3.3,0,6-2.7,6-6V67C182,63.7,179.3,61,176,61z M54.5,65h8v86h-8V65z
	 M53.5,151h-8V65h8V151z M63.5,65h8v86h-8V65z M72.5,65h8v86h-8V65z M81.5,65h8v86h-8V65z M90.5,65h8v86h-8V65z M99.5,65h8v86h-8V65
	z M108.5,65h8v86h-8V65z M117.5,65h8v86h-8V65z M126.5,65h8v86h-8V65z M135.5,65h8v86h-8V65z M144.5,65h8v86h-8V65z M153.5,65h8v86
	h-8V65z M162.5,65h8v86h-8V65z M38,149V67c0-1.1,0.9-2,2-2h4.5v86H40C38.9,151,38,150.1,38,149z M178,149c0,1.1-0.9,2-2,2h-4.5V65
	h4.5c1.1,0,2,0.9,2,2V149z"/>
</svg>
